<svg width="24" height="23" viewBox="0 0 24 23" fill="none" xmlns="http://www.w3.org/2000/svg">
<path fill-rule="evenodd" clip-rule="evenodd" d="M16.8249 8.92486C16.8249 12.8162 13.5016 15.9708 9.40214 15.9708C5.30267 15.9708 1.9794 12.8162 1.9794 8.92486C1.9794 5.03349 5.30267 1.87892 9.40214 1.87892C13.5016 1.87892 16.8249 5.03349 16.8249 8.92486ZM14.9869 16.1054C13.4253 17.2016 11.4935 17.8497 9.40214 17.8497C4.20948 17.8497 0 13.8539 0 8.92486C0 3.9958 4.20948 0 9.40214 0C14.5948 0 18.8043 3.9958 18.8043 8.92486C18.8043 11.0219 18.0423 12.9501 16.7669 14.4735L23.6376 20.9954C24.1207 21.454 24.1207 22.1975 23.6376 22.6561C23.1544 23.1147 22.3711 23.1147 21.888 22.6561L14.9869 16.1054Z" fill="white"/>
</svg>
