<svg width="22" height="22" viewBox="0 0 22 22" fill="none" xmlns="http://www.w3.org/2000/svg">
<path fill-rule="evenodd" clip-rule="evenodd" d="M16.8133 2.02409C18.4103 1.58406 20.0001 2.74047 20.0001 4.3422V11.705C19.4117 11.3701 18.7286 11.1785 18 11.1785C15.7909 11.1785 14 12.9403 14 15.1136C14 17.2869 15.7909 19.0487 18 19.0487C20.1466 19.0487 21.8983 17.3852 21.9957 15.2971H22.0001V4.3422C22.0001 1.45909 19.1385 -0.622442 16.2638 0.16961L9.26383 2.0983C7.33198 2.63058 6.00008 4.33336 6.00008 6.27089V14.6563C5.41171 14.3214 4.72861 14.1298 4 14.1298C1.79086 14.1298 0 15.8916 0 18.0649C0 20.2382 1.79086 22 4 22C6.20914 22 8 20.2382 8 18.0649C8 17.9446 7.99451 17.8255 7.98377 17.708H8.00008V6.27089C8.00008 5.19449 8.74002 4.2485 9.81328 3.95279L16.8133 2.02409Z" fill="#959AAC"/>
</svg>
