<svg width="22" height="22" viewBox="0 0 22 22" fill="none" xmlns="http://www.w3.org/2000/svg">
<path fill-rule="evenodd" clip-rule="evenodd" d="M16.8133 2.02419C18.4103 1.58416 20.0001 2.74057 20.0001 4.34229V11.7051C19.4117 11.3702 18.7286 11.1786 18 11.1786C15.7909 11.1786 14 12.9404 14 15.1137C14 17.287 15.7909 19.0488 18 19.0488C20.1466 19.0488 21.8983 17.3853 21.9957 15.2972H22.0001V4.34229C22.0001 1.45918 19.1385 -0.622346 16.2638 0.169705L9.26383 2.0984C7.33198 2.63068 6.00008 4.33346 6.00008 6.27099V14.6563C5.41171 14.3215 4.72861 14.1299 4 14.1299C1.79086 14.1299 0 15.8917 0 18.065C0 20.2383 1.79086 22.0001 4 22.0001C6.20914 22.0001 8 20.2383 8 18.065C8 17.9447 7.99451 17.8256 7.98377 17.7081H8.00008V6.27099C8.00008 5.19458 8.74002 4.24859 9.81328 3.95288L16.8133 2.02419Z" fill="white"/>
</svg>
