<svg width="28" height="28" viewBox="0 0 28 28" fill="none" xmlns="http://www.w3.org/2000/svg">
<g clip-path="url(#clip0_9268_202)">
<path d="M13.4094 0.00873653C13.4029 0.0131115 13.1972 0.0349865 12.95 0.054674C11.9744 0.131237 11.1125 0.284362 10.2157 0.535924C7.52285 1.29499 5.07285 2.87436 3.29004 5.00499C1.20973 7.48999 0.0678531 10.5809 0.00441557 13.8906C4.05713e-05 14.1991 0.00441557 14.5294 0.0197281 14.6672C0.0328531 14.7984 0.0547281 15.0347 0.0656656 15.1922C0.188166 16.6797 0.601603 18.2897 1.21192 19.6591C2.5441 22.645 4.82567 25.0403 7.72192 26.4928C9.29473 27.2803 10.9725 27.7616 12.7094 27.9212C13.5429 27.9978 13.6741 28.0044 14.175 27.9934C16.0716 27.9519 17.8938 27.5581 19.5891 26.8187C19.7335 26.7553 20.0638 26.5978 20.3219 26.4666C22.7632 25.235 24.7647 23.3362 26.1297 20.9562C27.3372 18.8497 27.9891 16.4084 27.9891 13.9891C27.9891 12.5366 27.7419 11.0162 27.2782 9.62499C27.0288 8.8703 26.8494 8.43717 26.4929 7.72624C25.5282 5.79686 24.1435 4.13436 22.4154 2.83061C20.0222 1.02374 17.1216 0.0481115 14.0329 0.00654903C13.696 0.00217403 13.4138 0.00217403 13.4094 0.00873653ZM15.1244 2.74311C17.8085 3.04499 20.1272 4.14311 21.9757 5.9828C23.7169 7.71749 24.8632 10.0012 25.1979 12.4053C25.2854 13.0309 25.2985 13.2366 25.2985 13.9781C25.2985 15.0544 25.2132 15.7697 24.9682 16.7431C24.5088 18.5762 23.6119 20.2453 22.3257 21.6562C20.7529 23.38 18.5675 24.6137 16.24 25.0884C15.4941 25.2416 14.8794 25.2984 14.011 25.2984C13.3 25.2984 12.9916 25.2787 12.4229 25.1978C9.6141 24.7997 7.03723 23.3537 5.2566 21.175C3.94848 19.5759 3.08223 17.6072 2.80223 15.5947C2.71473 14.9691 2.7016 14.7634 2.7016 14.0109C2.7016 13.2584 2.71473 13.0528 2.80223 12.425C3.06254 10.5503 3.81942 8.71717 4.95473 7.2078C5.42067 6.58874 6.05067 5.91499 6.60629 5.43811C7.29098 4.85186 8.13754 4.28967 8.92504 3.89374C10.3141 3.19811 11.6857 2.82842 13.3329 2.70374C13.5975 2.68405 14.8379 2.71249 15.1244 2.74311Z" fill="white"/>
<path d="M13.0376 7.63215C13.007 7.6409 12.972 7.67153 12.9567 7.69996C12.9348 7.74371 12.9282 8.3234 12.9282 10.3403V12.9281L10.3142 12.9325C7.8401 12.939 7.7001 12.9412 7.66291 12.9784C7.62572 13.0134 7.62354 13.0856 7.62354 14C7.62354 14.9143 7.62572 14.9865 7.66291 15.0215C7.7001 15.0587 7.8401 15.0609 10.3142 15.0675L12.9282 15.0718L12.9326 17.6859C12.9392 20.16 12.9413 20.3 12.9785 20.3372C13.0135 20.3743 13.0857 20.3765 14.0001 20.3765C14.9145 20.3765 14.9867 20.3743 15.0217 20.3372C15.0588 20.3 15.061 20.16 15.0676 17.6859L15.072 15.0718L17.686 15.0675C20.1601 15.0609 20.3001 15.0587 20.3373 15.0215C20.3745 14.9865 20.3767 14.9143 20.3767 14C20.3767 13.0856 20.3745 13.0134 20.3373 12.9784C20.3001 12.9412 20.1601 12.939 17.686 12.9325L15.072 12.9281L15.0676 10.314C15.061 7.83996 15.0588 7.69996 15.0217 7.66278C14.9867 7.62559 14.9123 7.6234 14.0373 7.61903C13.5167 7.61684 13.0682 7.6234 13.0376 7.63215Z" fill="white"/>
</g>
<defs>
<clipPath id="clip0_9268_202">
<rect width="28" height="28" fill="white"/>
</clipPath>
</defs>
</svg>
