<svg width="224" height="224" viewBox="0 0 224 224" fill="none" xmlns="http://www.w3.org/2000/svg">
<path d="M9.14767 0.789036C7.86863 1.29151 6.04144 2.61623 4.35128 4.30639C-0.445105 9.10277 0.0116941 -2.63696 0.0116941 111.883C0.0116941 206.303 0.0573739 212.287 0.788252 214.388C1.83889 217.266 4.9908 220.783 7.95999 222.336L10.2897 223.57H111.927H213.565L215.849 222.336C218.59 220.875 221.057 218.362 222.518 215.576L223.615 213.52V111.883V10.2448L222.381 7.91509C220.737 4.80886 217.22 1.70263 214.25 0.743351C212.058 0.012473 204.338 -0.0332096 111.516 0.0124703C18.9232 0.0124703 11.0662 0.103838 9.14767 0.789036ZM117.135 45.1899C118.049 45.8294 119.373 47.1541 120.058 48.1134L121.292 49.8949L121.52 75.3843C121.703 95.4377 121.886 101.011 122.342 101.467C122.799 101.924 128.372 102.107 148.426 102.29L173.869 102.518L175.559 103.66C176.519 104.3 177.843 105.624 178.529 106.584C179.625 108.182 179.762 108.822 179.762 111.883C179.762 114.852 179.579 115.628 178.62 117.044C177.981 118.004 176.656 119.328 175.697 120.014L173.915 121.247L148.426 121.475C128.372 121.658 122.799 121.841 122.342 122.298C121.886 122.754 121.703 128.327 121.52 148.381L121.292 173.87L120.058 175.652C119.373 176.611 118.049 177.936 117.089 178.575C115.673 179.534 114.897 179.717 111.927 179.717C108.958 179.717 108.182 179.534 106.766 178.575C105.806 177.936 104.482 176.611 103.796 175.652L102.563 173.87L102.335 148.381C102.152 128.327 101.969 122.754 101.512 122.298C101.056 121.841 95.4827 121.658 75.4292 121.475L49.9855 121.247L48.2953 120.105C47.3361 119.465 46.0113 118.141 45.3261 117.181C44.2298 115.583 44.0928 114.943 44.0928 111.837C44.0928 108.639 44.2298 108.137 45.4632 106.355C46.2397 105.305 47.7472 103.934 48.8435 103.34L50.8534 102.29H75.6119C96.2135 102.29 100.462 102.198 101.238 101.65C102.061 101.011 102.106 100.051 102.335 75.43L102.563 49.8492L103.933 47.885C105.989 44.9615 108.684 43.7281 112.43 43.9108C114.714 44.0479 115.856 44.3676 117.135 45.1899Z" fill="#202C54"/>
<path d="M100 102C104.457 81.6422 101.513 103.403 102.5 50C105.289 47.1554 107.219 45.76 112 44C116.174 45.642 118.22 47.0076 121.5 50V91L124.5 102.5H174C177.6 105.703 178.902 107.779 180 112C178.831 116.579 177.534 118.548 174 121H124.5L121.5 134L121 173.5C118.271 177.244 116.301 178.524 112 179.5C107.025 179.014 104.957 177.683 102.5 173.5L102 134L100 121H51C47.3314 118.515 45.7977 116.326 44 111C45.4646 106.902 46.9529 104.909 51 102H100Z" fill="white" stroke="white" stroke-width="3"/>
</svg>
