<svg width="28" height="28" viewBox="0 0 28 28" fill="none" xmlns="http://www.w3.org/2000/svg">
<g clip-path="url(#clip0_9323_188)">
<mask id="mask0_9323_188" style="mask-type:luminance" maskUnits="userSpaceOnUse" x="0" y="0" width="28" height="28">
<path d="M28 0H0V28H28V0Z" fill="white"/>
</mask>
<g mask="url(#mask0_9323_188)">
<path d="M13.4094 0.00865457C13.4029 0.0130295 13.1972 0.0349045 12.95 0.054592C11.9744 0.131155 11.1125 0.28428 10.2157 0.535842C7.52285 1.29491 5.07285 2.87428 3.29004 5.00491C1.20973 7.48991 0.0678531 10.5808 0.00441557 13.8905C4.05717e-05 14.199 0.00441557 14.5293 0.0197281 14.6671C0.0328531 14.7983 0.0547281 15.0346 0.0656656 15.1921C0.188166 16.6796 0.601603 18.2896 1.21192 19.659C2.5441 22.6449 4.82567 25.0402 7.72192 26.4927C9.29473 27.2802 10.9725 27.7615 12.7094 27.9211C13.5429 27.9977 13.6741 28.0043 14.175 27.9933C16.0716 27.9518 17.8938 27.558 19.5891 26.8186C19.7335 26.7552 20.0638 26.5977 20.3219 26.4665C22.7632 25.2349 24.7647 23.3361 26.1297 20.9561C27.3372 18.8496 27.9891 16.4083 27.9891 13.989C27.9891 12.5365 27.7419 11.0161 27.2782 9.62491C27.0288 8.87022 26.8494 8.43709 26.4929 7.72616C25.5282 5.79678 24.1435 4.13428 22.4154 2.83053C20.0222 1.02366 17.1216 0.0480295 14.0329 0.00646707C13.696 0.00209207 13.4138 0.00209207 13.4094 0.00865457ZM15.1244 2.74303C17.8085 3.04491 20.1272 4.14303 21.9757 5.98272C23.7169 7.71741 24.8632 10.0011 25.1979 12.4052C25.2854 13.0308 25.2985 13.2365 25.2985 13.978C25.2985 15.0543 25.2132 15.7696 24.9682 16.743C24.5088 18.5761 23.6119 20.2452 22.3257 21.6561C20.7529 23.3799 18.5675 24.6136 16.24 25.0883C15.4941 25.2415 14.8794 25.2983 14.011 25.2983C13.3 25.2983 12.9916 25.2786 12.4229 25.1977C9.6141 24.7996 7.03723 23.3536 5.2566 21.1749C3.94848 19.5758 3.08223 17.6071 2.80223 15.5946C2.71473 14.969 2.7016 14.7633 2.7016 14.0108C2.7016 13.2583 2.71473 13.0527 2.80223 12.4249C3.06254 10.5502 3.81942 8.71709 4.95473 7.20772C5.42067 6.58866 6.05067 5.91491 6.60629 5.43803C7.29098 4.85178 8.13754 4.28959 8.92504 3.89366C10.3141 3.19803 11.6857 2.82834 13.3329 2.70366C13.5975 2.68397 14.8379 2.71241 15.1244 2.74303Z" fill="url(#paint0_linear_9323_188)"/>
<path d="M13.0376 7.63195C13.007 7.6407 12.972 7.67133 12.9567 7.69976C12.9348 7.74351 12.9282 8.3232 12.9282 10.3401V12.9279L10.3142 12.9323C7.8401 12.9388 7.7001 12.941 7.66291 12.9782C7.62572 13.0132 7.62354 13.0854 7.62354 13.9998C7.62354 14.9141 7.62572 14.9863 7.66291 15.0213C7.7001 15.0585 7.8401 15.0607 10.3142 15.0673L12.9282 15.0716L12.9326 17.6857C12.9392 20.1598 12.9413 20.2998 12.9785 20.337C13.0135 20.3741 13.0857 20.3763 14.0001 20.3763C14.9145 20.3763 14.9867 20.3741 15.0217 20.337C15.0588 20.2998 15.061 20.1598 15.0676 17.6857L15.072 15.0716L17.686 15.0673C20.1601 15.0607 20.3001 15.0585 20.3373 15.0213C20.3745 14.9863 20.3767 14.9141 20.3767 13.9998C20.3767 13.0854 20.3745 13.0132 20.3373 12.9782C20.3001 12.941 20.1601 12.9388 17.686 12.9323L15.072 12.9279L15.0676 10.3138C15.061 7.83976 15.0588 7.69976 15.0217 7.66258C14.9867 7.62539 14.9123 7.6232 14.0373 7.61883C13.5167 7.61664 13.0682 7.6232 13.0376 7.63195Z" fill="url(#paint1_linear_9323_188)"/>
</g>
</g>
<defs>
<linearGradient id="paint0_linear_9323_188" x1="13.996" y1="0.00341797" x2="13.996" y2="27.9975" gradientUnits="userSpaceOnUse">
<stop offset="0.31" stop-color="#E272F4"/>
<stop offset="0.6" stop-color="#DE2DFB"/>
</linearGradient>
<linearGradient id="paint1_linear_9323_188" x1="14.0001" y1="7.61841" x2="14.0001" y2="20.3763" gradientUnits="userSpaceOnUse">
<stop offset="0.31" stop-color="#E272F4"/>
<stop offset="0.6" stop-color="#DE2DFB"/>
</linearGradient>
<clipPath id="clip0_9323_188">
<rect width="28" height="28" fill="white"/>
</clipPath>
</defs>
</svg>
