<svg width="187" height="187" viewBox="0 0 187 187" fill="none" xmlns="http://www.w3.org/2000/svg">
<path d="M186.492 1H1.4274L1 186.492H186.492V1Z" fill="#292929" stroke="#292929"/>
<path fill-rule="evenodd" clip-rule="evenodd" d="M112.494 64.845C117.644 63.416 122.771 67.1713 122.771 72.3728V96.2828C120.874 95.1953 118.671 94.573 116.321 94.573C109.197 94.573 103.421 100.294 103.421 107.352C103.421 114.409 109.197 120.131 116.321 120.131C123.244 120.131 128.893 114.729 129.207 107.948H129.221V72.3728C129.221 63.0102 119.993 56.2507 110.722 58.8228L88.1473 65.086C81.9172 66.8145 77.6219 72.3441 77.6219 78.636V105.867C75.7244 104.779 73.5214 104.157 71.1716 104.157C64.0473 104.157 58.2719 109.878 58.2719 116.936C58.2719 123.993 64.0473 129.715 71.1716 129.715C78.296 129.715 84.0714 123.993 84.0714 116.936C84.0714 116.545 84.0537 116.158 84.019 115.777H84.0718V78.636C84.0718 75.1405 86.4581 72.0685 89.9192 71.1082L112.494 64.845Z" fill="#959AAC"/>
</svg>
