<svg width="28" height="28" viewBox="0 0 28 28" fill="none" xmlns="http://www.w3.org/2000/svg">
<path d="M13.9994 0C6.28003 0 0.00012207 6.2804 0.00012207 14C0.00012207 21.7195 6.28003 28 13.9994 28C21.719 28 27.9998 21.7195 27.9998 14C27.9998 6.2804 21.719 0 13.9994 0ZM13.9994 26.1639C7.29265 26.1639 1.83622 20.7072 1.83622 14C1.83622 7.29281 7.29265 1.8361 13.9994 1.8361C20.7068 1.8361 26.1636 7.29281 26.1636 14C26.1637 20.7071 20.7068 26.1639 13.9994 26.1639Z" fill="white"/>
<path d="M19.5633 13.0818L8.43624 13.082C7.9293 13.082 7.51819 13.4931 7.51819 14C7.51819 14.5071 7.9293 14.9182 8.43624 14.9182L19.5633 14.9178C20.0703 14.9178 20.4813 14.5068 20.4813 13.9998C20.4813 13.4929 20.0703 13.0818 19.5633 13.0818Z" fill="white"/>
</svg>
