<svg width="26" height="26" viewBox="0 0 26 26" fill="none" xmlns="http://www.w3.org/2000/svg">
<path fill-rule="evenodd" clip-rule="evenodd" d="M5.81734 5.81733C3.02508 8.60959 3.02508 13.1367 5.81734 15.929C8.60958 18.7213 13.1368 18.7213 15.9289 15.929C18.7212 13.1367 18.7212 8.60959 15.9289 5.81733C13.1368 3.02508 8.60958 3.02508 5.81734 5.81733ZM14.0904 14.0905C12.3136 15.8674 9.43269 15.8674 7.65581 14.0905C5.87892 12.3136 5.87892 9.43269 7.65581 7.65581C9.43269 5.87892 12.3136 5.87892 14.0904 7.65581C15.8674 9.43269 15.8674 12.3136 14.0904 14.0905Z" fill="white"/>
<path d="M14.5502 17.3078C13.7886 16.5463 13.7886 15.3117 14.5502 14.5502C15.3117 13.7886 16.5463 13.7886 17.3078 14.5502L21.904 19.1463C22.6655 19.9078 22.6655 21.1426 21.904 21.904C21.1426 22.6655 19.9078 22.6655 19.1463 21.904L14.5502 17.3078Z" fill="white"/>
</svg>
