<svg width="13" height="13" viewBox="0 0 13 13" fill="none" xmlns="http://www.w3.org/2000/svg">
<g clip-path="url(#clip0_9244_218)">
<path d="M5.55539 0.0202643C3.34335 0.316827 1.47359 1.70112 0.54937 3.72526C0.293433 4.28589 0.109604 4.92573 0.0253076 5.55136L-0.00109863 5.74534L0.00194824 6.51112L0.00499512 7.2769L0.0334326 7.45464C0.123823 8.01628 0.248745 8.47534 0.446792 8.96792C0.526011 9.16698 0.71187 9.54886 0.821558 9.73979C1.54265 10.9961 2.64562 11.9579 3.98726 12.5003C5.24968 13.0101 6.70203 13.1076 8.04367 12.7714C8.74546 12.5957 9.4239 12.2961 10.0262 11.897C11.6095 10.8458 12.6434 9.14362 12.8567 7.23628C12.8882 6.95495 12.8984 6.76706 12.8984 6.4644C12.8984 6.16175 12.8882 5.97386 12.8567 5.69253C12.7247 4.51339 12.2697 3.38401 11.5486 2.45269C11.2571 2.07589 10.859 1.66964 10.4964 1.37917C9.70421 0.744405 8.78203 0.309717 7.78468 0.101514C7.7014 0.0842487 7.54601 0.0558112 7.43937 0.0375299L7.2464 0.00604555L6.46945 0.0040143C5.76765 0.00198305 5.67929 0.00299868 5.55539 0.0202643ZM6.14445 1.99058V3.42261H6.11398C6.05507 3.42261 5.77171 3.39112 5.60617 3.36573C5.19281 3.30276 4.69921 3.17886 4.30921 3.04073L4.20664 3.00417L4.24523 2.91175C4.48593 2.33284 4.84749 1.66558 5.24054 1.07245C5.36953 0.877452 5.53406 0.63878 5.55437 0.617452C5.55742 0.613389 5.62953 0.601202 5.71281 0.59003C5.90171 0.564639 5.92304 0.562608 6.04593 0.560577L6.14445 0.558546V1.99058ZM6.98742 0.568702C7.04023 0.57378 7.13367 0.585967 7.1946 0.595108L7.30429 0.612374L7.36523 0.694639C7.56328 0.962764 7.9096 1.51019 8.11476 1.87886C8.32398 2.25362 8.66929 2.98487 8.64695 3.00519C8.63273 3.0194 8.24882 3.1423 8.06398 3.19308C7.65164 3.30581 7.17328 3.39214 6.81273 3.41855L6.7132 3.42565V1.99159V0.558546H6.80257C6.85132 0.558546 6.9346 0.563624 6.98742 0.568702ZM4.78351 0.797217C4.78351 0.800264 4.74289 0.861202 4.69312 0.932296C4.44531 1.28675 4.18023 1.74886 3.97507 2.18558C3.8857 2.3755 3.7171 2.76651 3.7171 2.78276C3.7171 2.78886 3.71406 2.79292 3.71101 2.79292C3.70796 2.79292 3.6196 2.75433 3.51601 2.70659C3.18695 2.55628 2.82843 2.35519 2.55523 2.16933L2.43539 2.08706L2.48414 2.04237C3.06203 1.51628 3.80039 1.08972 4.52453 0.864249C4.75609 0.792139 4.78351 0.78503 4.78351 0.797217ZM8.2539 0.836827C9.02476 1.06737 9.73773 1.47058 10.3664 2.03019C10.3969 2.05761 10.4192 2.08503 10.4162 2.09112C10.405 2.10839 10.0962 2.3105 9.94796 2.39683C9.73773 2.5187 9.16695 2.80206 9.15476 2.79089C9.15374 2.78886 9.12124 2.71472 9.08468 2.62534C8.81656 1.98245 8.45499 1.32026 8.11578 0.85003C8.08734 0.811436 8.0782 0.792139 8.08734 0.792139C8.09648 0.792139 8.17062 0.812452 8.2539 0.836827ZM2.13273 2.55526C2.40492 2.74417 2.8975 3.01128 3.35757 3.21847L3.52109 3.29261L3.48859 3.38097C3.43171 3.53331 3.30374 3.92839 3.24484 4.13355C3.04375 4.83026 2.9239 5.46706 2.87921 6.0805L2.8721 6.17495H1.72039H0.567651L0.572729 6.1262C0.575776 6.0998 0.580854 6.03276 0.583901 5.9769C0.59812 5.72706 0.653979 5.34925 0.716948 5.06792C0.924136 4.1498 1.34359 3.30276 1.93875 2.60097C1.99359 2.53597 2.03828 2.49128 2.04539 2.49534C2.05148 2.4994 2.09109 2.52581 2.13273 2.55526ZM10.861 2.52683C10.9311 2.60401 11.0662 2.77058 11.1545 2.88839C11.5791 3.45815 11.9132 4.15589 12.095 4.85565C12.1966 5.24464 12.2656 5.67628 12.2849 6.04495L12.292 6.17495H11.1434H9.99367L9.9896 6.15159C9.98656 6.1394 9.98148 6.07644 9.97843 6.01245C9.94289 5.37159 9.73062 4.40878 9.43507 3.55464C9.38937 3.42362 9.35179 3.30987 9.35078 3.30276C9.34976 3.29464 9.40257 3.26519 9.48585 3.22862C9.94695 3.02347 10.4761 2.73605 10.7503 2.54105C10.7899 2.51261 10.8224 2.48925 10.8244 2.48925C10.8255 2.48823 10.8417 2.5055 10.861 2.52683ZM4.17312 3.53839C4.78351 3.7862 5.50664 3.97003 6.01242 4.00659C6.06015 4.00964 6.1089 4.01472 6.1221 4.01776L6.14445 4.02183V5.09839V6.17495H4.79367H3.44187L3.44796 6.10081C3.46624 5.853 3.4764 5.74534 3.49468 5.59605C3.57085 4.95925 3.75265 4.23612 4.00351 3.56683C4.02179 3.51909 4.04007 3.48456 4.04617 3.48761C4.05226 3.48964 4.10914 3.513 4.17312 3.53839ZM8.88562 3.63284C9.16695 4.40776 9.33554 5.14206 9.39953 5.87534C9.40765 5.9698 9.41476 6.07644 9.41476 6.11097V6.17495H8.06398H6.7132V5.09839V4.02284L6.74671 4.01776C6.76398 4.01573 6.85132 4.00558 6.93867 3.99745C7.44648 3.94667 8.09242 3.77909 8.64796 3.55565C8.74343 3.51706 8.82265 3.48558 8.8257 3.48456C8.82874 3.48355 8.85515 3.55058 8.88562 3.63284ZM2.8782 6.87776C2.91984 7.64151 3.12093 8.54745 3.44695 9.44222C3.48351 9.54378 3.51398 9.63112 3.51398 9.63519C3.51398 9.64026 3.44898 9.67276 3.36874 9.70831C2.90664 9.9155 2.40289 10.1897 2.11953 10.3867C2.07585 10.4162 2.03625 10.4385 2.03117 10.4355C2.02609 10.4325 1.97328 10.3715 1.91437 10.3004C1.21562 9.46456 0.772808 8.45097 0.625542 7.35105C0.603198 7.18855 0.594058 7.08901 0.573745 6.81683L0.569683 6.75386H1.72039H2.87109L2.8782 6.87776ZM6.14445 7.83347V8.91409L6.01039 8.92526C5.46499 8.97401 4.8221 9.13651 4.20968 9.37925C4.11828 9.41581 4.04109 9.44526 4.03804 9.44526C4.02484 9.44526 3.86539 8.97198 3.7821 8.68355C3.59218 8.02745 3.50179 7.5298 3.44796 6.83206L3.44187 6.75386H4.79367H6.14445V7.83347ZM9.41171 6.87776C9.38124 7.48105 9.22484 8.26308 8.99124 8.98315C8.9364 9.15073 8.83687 9.43612 8.83078 9.44323C8.82874 9.44526 8.74445 9.41479 8.64492 9.37519C8.03351 9.13448 7.45257 8.98722 6.89093 8.92933L6.71828 8.91206L6.71523 7.83245L6.7132 6.75386H8.06499H9.41781L9.41171 6.87776ZM12.289 6.81175C12.289 6.84425 12.2819 6.95089 12.2737 7.04839C12.1671 8.2712 11.7152 9.38331 10.9504 10.3004C10.8864 10.3776 10.8316 10.4406 10.8285 10.4406C10.8265 10.4406 10.7706 10.405 10.7056 10.3614C10.406 10.1582 9.99976 9.93886 9.54171 9.72964C9.44117 9.68394 9.35585 9.64331 9.35281 9.64026C9.34874 9.6362 9.36804 9.57323 9.39546 9.50112C9.70929 8.66628 9.9439 7.65167 9.97843 6.97222C9.98148 6.91026 9.98656 6.83612 9.9896 6.80667L9.99468 6.75386H11.1423H12.289V6.81175ZM6.14445 10.9443V12.3814L6.0764 12.3764C6.03781 12.3733 5.96671 12.3682 5.91593 12.3652C5.82757 12.3591 5.6407 12.3357 5.58281 12.3235C5.56249 12.3195 5.53406 12.288 5.46499 12.1935C5.01914 11.5791 4.59359 10.8052 4.27671 10.0364C4.23101 9.92565 4.22796 9.91144 4.2432 9.90331C4.29703 9.87589 4.71749 9.74995 4.94601 9.69409C5.30046 9.60776 5.84078 9.52144 6.1221 9.50722L6.14445 9.5062V10.9443ZM7.04328 9.53769C7.49421 9.58745 7.98984 9.69612 8.45804 9.84847C8.5657 9.883 8.63273 9.91042 8.63273 9.91854C8.63273 9.92565 8.5921 10.0272 8.54234 10.143C8.21734 10.9047 7.85984 11.5466 7.41601 12.1692L7.31039 12.3175L7.24742 12.3286C7.14382 12.3479 6.93765 12.3682 6.82492 12.3723L6.71828 12.3753L6.71523 10.9535C6.71421 10.1714 6.71523 9.5255 6.71828 9.51839C6.72335 9.50417 6.74265 9.50519 7.04328 9.53769ZM3.81765 10.3421C4.05531 10.9474 4.39554 11.576 4.75304 12.0696C4.78554 12.1133 4.79164 12.1275 4.77742 12.1235C4.76624 12.1204 4.72867 12.1103 4.6921 12.1011C4.04312 11.9396 3.35249 11.5913 2.76851 11.1292C2.65578 11.0398 2.43843 10.855 2.43843 10.8468C2.43742 10.8336 2.76445 10.6183 2.96046 10.5035C3.17375 10.3786 3.68562 10.1247 3.72218 10.1257C3.72726 10.1257 3.77093 10.2232 3.81765 10.3421ZM9.2807 10.1836C9.54882 10.3045 9.84843 10.4639 10.0902 10.6163C10.2344 10.7067 10.4202 10.8367 10.4202 10.8478C10.4202 10.855 10.2923 10.9677 10.1562 11.0814C9.70117 11.4603 9.10195 11.7964 8.53929 11.9894C8.38289 12.0432 8.08429 12.1296 8.0782 12.1235C8.07617 12.1214 8.0914 12.0981 8.1107 12.0696C8.49562 11.5375 8.83992 10.8905 9.09484 10.2242C9.11515 10.1704 9.13648 10.1257 9.14156 10.1257C9.14765 10.1257 9.2096 10.1521 9.2807 10.1836Z" fill="white"/>
</g>
<defs>
<clipPath id="clip0_9244_218">
<rect width="13" height="13" fill="white"/>
</clipPath>
</defs>
</svg>
