<svg width="38" height="38" viewBox="0 0 38 38" fill="none" xmlns="http://www.w3.org/2000/svg">
<path fill-rule="evenodd" clip-rule="evenodd" d="M22.75 9.99988L19 12.6573L22.75 15.3147V13.6486C22.8299 13.6691 22.9137 13.6801 23 13.6801C26.3137 13.6801 29 16.4277 29 19.8171C29 23.2065 26.3137 25.9542 23 25.9542H14C10.6863 25.9542 8 23.2065 8 19.8171C8 16.4277 10.6863 13.6801 14 13.6801C14.5523 13.6801 15 13.2324 15 12.6801V12.6344C15 12.0821 14.5523 11.6344 14 11.6344C9.58172 11.6344 6 15.2979 6 19.8171C6 24.3363 9.58172 27.9999 14 27.9999H23C27.4183 27.9999 31 24.3363 31 19.8171C31 15.2979 27.4183 11.6344 23 11.6344C22.9137 11.6344 22.8299 11.6453 22.75 11.6659V9.99988Z" fill="white"/>
</svg>
