<svg width="38" height="38" viewBox="0 0 38 38" fill="none" xmlns="http://www.w3.org/2000/svg">
<path fill-rule="evenodd" clip-rule="evenodd" d="M27.5444 15.4391L31 12.7195L27.5444 10V11.6984C27.4704 11.6817 27.3935 11.6729 27.3145 11.6729H26.3369C25.1733 11.6729 24.0209 11.9016 22.9447 12.3461C22.1232 12.6854 21.3568 13.1461 20.6707 13.7129L19.8635 14.3797C19.2689 14.8709 18.7251 15.4211 18.2403 16.0218L14.4977 20.6597C14.101 21.1512 13.6561 21.6014 13.1696 22.0032L12.3624 22.6701C11.8365 23.1045 11.249 23.4576 10.6194 23.7177C9.79445 24.0585 8.91115 24.2338 8.01924 24.2338H7.04167C6.46637 24.2338 6 24.7024 6 25.2805C6 25.8587 6.46637 26.3273 7.04167 26.3273H8.01924C9.18285 26.3273 10.3352 26.0986 11.4114 25.654C12.2329 25.3147 12.9994 24.854 13.6855 24.2872L14.4926 23.6204C15.0872 23.1292 15.631 22.5791 16.1158 21.9783L19.8585 17.3404C20.2551 16.8489 20.7001 16.3988 21.1865 15.9969L21.9937 15.3301C22.5196 14.8956 23.1071 14.5425 23.7368 14.2824C24.5617 13.9417 25.445 13.7663 26.3369 13.7663H27.3145C27.3935 13.7663 27.4704 13.7575 27.5444 13.7408V15.4391ZM27.5444 28.0001L31 25.2806L27.5444 22.561V24.2594C27.4704 24.2426 27.3935 24.2338 27.3145 24.2338H26.3369C25.445 24.2338 24.5617 24.0585 23.7368 23.7177C23.1071 23.4576 22.5196 23.1045 21.9937 22.6701L21.1507 21.9736C20.6881 21.5914 20.2649 21.1634 19.8877 20.696L19.6766 20.4343C19.3142 19.9852 18.6582 19.9164 18.2114 20.2805C17.7646 20.6447 17.6961 21.3038 18.0584 21.7529L18.2696 22.0145C18.7349 22.5912 19.2569 23.1193 19.8276 23.5908L20.6707 24.2872C21.3568 24.854 22.1232 25.3147 22.9447 25.654C24.0209 26.0986 25.1733 26.3273 26.3369 26.3273H27.3145C27.3935 26.3273 27.4704 26.3185 27.5444 26.3017V28.0001ZM10.6194 14.2824C9.79446 13.9417 8.91116 13.7663 8.01925 13.7663H7.04168C6.46638 13.7663 6.00001 13.2977 6.00001 12.7196C6.00001 12.1415 6.46638 11.6729 7.04168 11.6729H8.01925C9.18286 11.6729 10.3352 11.9016 11.4115 12.3461C12.2329 12.6854 12.9994 13.1461 13.6855 13.7129L14.5285 14.4094C15.0992 14.8809 15.6212 15.4089 16.0866 15.9856L16.2978 16.2473C16.6601 16.6963 16.5916 17.3555 16.1448 17.7196C15.6979 18.0837 15.042 18.0149 14.6796 17.5659L14.4684 17.3042C14.0912 16.8368 13.6681 16.4087 13.2055 16.0265L12.3624 15.3301C11.8365 14.8956 11.2491 14.5425 10.6194 14.2824Z" fill="white"/>
</svg>
