<svg width="26" height="23" viewBox="0 0 26 23" fill="none" xmlns="http://www.w3.org/2000/svg">
<path fill-rule="evenodd" clip-rule="evenodd" d="M24 6.70833C24 4.06197 21.7614 1.91667 19 1.91667C17.6063 1.91667 16.3488 2.46061 15.4399 3.34386C14.1277 4.6189 11.8723 4.61889 10.5601 3.34386C9.65117 2.46061 8.3937 1.91667 7 1.91667C4.23858 1.91667 2 4.06197 2 6.70833C2 9.19096 3.06424 11.8361 5.61138 15.1564C6.6988 16.5738 7.98317 18.0779 9.33294 19.2343C10.8209 20.509 12.0679 21.0833 13 21.0833C13.9321 21.0833 15.1791 20.509 16.6671 19.2343C18.0168 18.0779 19.3012 16.5738 20.3886 15.1563C22.9358 11.8361 24 9.19096 24 6.70833ZM19 0C22.866 0 26 3.00342 26 6.70833C26 9.76117 24.6768 12.8024 22 16.2917C20.8803 17.7512 19.5008 19.3774 18 20.6632C16.4143 22.0216 14.6932 23 13 23C11.3068 23 9.58566 22.0216 8 20.6632C6.49916 19.3774 5.11966 17.7512 4 16.2917C1.32315 12.8024 0 9.76117 0 6.70833C0 3.00342 3.13401 0 7 0C8.95054 0 10.7147 0.764547 11.9841 1.99799C12.5131 2.51196 13.4869 2.51196 14.0159 1.99799C15.2853 0.764547 17.0495 0 19 0Z" fill="#959AAC"/>
</svg>
